{"title":"Friendly 22/7/2013 Nagoya Grampus V arsenal - badr","uid":8725506,"size":7225949012,"categoryP":"video","categoryS":"other","magnet":"?xt=urn:btih:fb275ea19f327720d4daf6db8b282374183e0f51&amp;dn=+Friendly+22%2F7%2F2013+Nagoya+Grampus+V+arsenal+-+badr+&amp;tr=udp%3A%2F%2Ftracker.openbittorrent.com%3A80&amp;tr=udp%3A%2F%2Fopen.demonii.com%3A1337&amp;tr=udp%3A%2F%2Ftracker.coppersurfer.tk%3A6969&amp;tr=udp%3A%2F%2Fexodus.desync.com%3A6969","seeders":0,"leechers":0,"uploader":"badrreyes9","files":2,"time":1374509348,"description":"//bayimg.com/eanCiaAeo\n//bayimg.com/EaNcJaAEO\n\nFormat                                   : MPEG-TS\nFile size                                : 3.36 GiB\nDuration                                 : 48mn 8s\nOverall bit rate                         : 9 987 Kbps\n\nVideo\nID                                       : 421 (0x1A5)\nMenu ID                                  : 5202 (0x1452)\nFormat                                   : AVC\nFormat/Info                              : Advanced Video Codec\nFormat version                           : Version 2\nFormat profile                           : &lt;a class=&quot;__cf_email__&quot; href=&quot;/cdn-cgi/l/email-protection&quot; data-cfemail=&quot;d098b9b7b8909ce4fee0&quot;&gt;[email&amp;#160;protected]&lt;/a&gt;&lt;script cf-hash='f9e31' type=&quot;text/javascript&quot;&gt;\n/* &lt;![CDATA[ */!function(){try{var t=&quot;currentScript&quot;in document?document.currentScript:function(){for(var t=document.getElementsByTagName(&quot;script&quot;),e=t.length;e--;)if(t[e].getAttribute(&quot;cf-hash&quot;))return t[e]}();if(t&amp;&amp;t.previousSibling){var e,r,n,i,c=t.previousSibling,a=c.getAttribute(&quot;data-cfemail&quot;);if(a){for(e=&quot;&quot;,r=parseInt(a.substr(0,2),16),n=2;a.length-n;n+=2)i=parseInt(a.substr(n,2),16)^r,e+=String.fromCharCode(i);e=document.createTextNode(e),c.parentNode.replaceChild(e,c)}}}catch(u){}}();/* ]]&gt; */&lt;/script&gt;\nFormat settings, CABAC                   : Yes\nFormat settings, ReFrames                : 4 frames\nFormat settings, GOP                     : M=4, N=36\nCodec ID                                 : 27\nDuration                                 : 48mn 8s\nBit rate                                 : 8 976 Kbps\nMaximum bit rate                         : 9 430 Kbps\nWidth                                    : 1 920 pixels\nHeight                                   : 1 080 pixels\nDisplay aspect ratio                     : 16:9\nFrame rate                               : 25.000 fps\nColor space                              : YUV\nChroma subsampling                       : 4:2:0\nBit depth                                : 8 bits\nScan type                                : Interlaced\nScan order                               : Top Field First\nBits/(Pixel*Frame)                       : 0.173\nStream size                              : 3.02 GiB (90%)\nColor primaries                          : BT.709-5, BT.1361, IEC 61966-2-4, SMPTE RP177\nTransfer characteristics                 : BT.709-5, BT.1361\nMatrix coefficients                      : BT.709-5, BT.1361, IEC 61966-2-4 709, SMPTE RP177\n\nAudio #1\nID                                       : 422 (0x1A6)\nMenu ID                                  : 5202 (0x1452)\nFormat                                   : MPEG Audio\nFormat version                           : Version 1\nFormat profile                           : Layer 2\nCodec ID                                 : 4\nDuration                                 : 48mn 8s\nBit rate mode                            : Constant\nBit rate                                 : 256 Kbps\nMaximum bit rate                         : 264 Kbps\nChannel(s)                               : 2 channels\nSampling rate                            : 48.0 KHz\nCompression mode                         : Lossy\nDelay relative to video                  : 30ms\nStream size                              : 88.1 MiB (3%)\nLanguage                                 : Arabic\n\nAudio #2\nID                                       : 423 (0x1A7)\nMenu ID                                  : 5202 (0x1452)\nFormat                                   : MPEG Audio\nFormat version                           : Version 1\nFormat profile                           : Layer 2\nCodec ID                                 : 4\nDuration                                 : 48mn 8s\nBit rate mode                            : Constant\nBit rate                                 : 256 Kbps\nMaximum bit rate                         : 264 Kbps\nChannel(s)                               : 2 channels\nSampling rate                            : 48.0 KHz\nCompression mode                         : Lossy\nDelay relative to video                  : 30ms\nStream size                              : 88.1 MiB (3%)\nLanguage                                 : English\n\nMenu\nID                                       : 420 (0x1A4)\nMenu ID                                  : 5202 (0x1452)\nDuration                                 : 48mn 8s\nList                                     : 421 (0x1A5) (AVC) / 422 (0x1A6) (MPEG Audio, Arabic) / 423 (0x1A7) (MPEG Audio, English)\nLanguage                                 :  / Arabic / English\nMaximum bit rate                         : 9956800\n\n","torrent":{"xt":"urn:btih:fb275ea19f327720d4daf6db8b282374183e0f51","amp;dn":"+Friendly+22%2F7%2F2013+Nagoya+Grampus+V+arsenal+-+badr+","amp;tr":["udp%3A%2F%2Ftracker.openbittorrent.com%3A80","udp%3A%2F%2Fopen.demonii.com%3A1337","udp%3A%2F%2Ftracker.coppersurfer.tk%3A6969","udp%3A%2F%2Fexodus.desync.com%3A6969"],"infoHash":"fb275ea19f327720d4daf6db8b282374183e0f51","infoHashBuffer":{"type":"Buffer","data":[251,39,94,161,159,50,119,32,212,218,246,219,139,40,35,116,24,62,15,81]},"announce":[],"urlList":[]}}